<mxfile host="Electron" modified="2023-12-25T10:49:18.283Z" agent="Mozilla/5.0 (Windows NT 10.0; Win64; x64) AppleWebKit/537.36 (KHTML, like Gecko) draw.io/22.1.11 Chrome/114.0.5735.289 Electron/25.9.8 Safari/537.36" etag="KlV6_qZkPhmTwwGwWezW" version="22.1.11" type="device">
  <diagram name="Page-1" id="2YBvvXClWsGukQMizWep">
    <mxGraphModel dx="1195" dy="703" grid="1" gridSize="10" guides="1" tooltips="1" connect="1" arrows="1" fold="1" page="1" pageScale="1" pageWidth="850" pageHeight="1100" math="0" shadow="0">
      <root>
        <mxCell id="0" />
        <mxCell id="1" parent="0" />
        <mxCell id="aM9ryv3xv72pqoxQDRHE-1" value=":APP" style="shape=umlLifeline;perimeter=lifelinePerimeter;whiteSpace=wrap;html=1;container=0;dropTarget=0;collapsible=0;recursiveResize=0;outlineConnect=0;portConstraint=eastwest;newEdgeStyle={&quot;edgeStyle&quot;:&quot;elbowEdgeStyle&quot;,&quot;elbow&quot;:&quot;vertical&quot;,&quot;curved&quot;:0,&quot;rounded&quot;:0};" parent="1" vertex="1">
          <mxGeometry x="40" y="40" width="100" height="1120" as="geometry" />
        </mxCell>
        <mxCell id="aM9ryv3xv72pqoxQDRHE-2" value="" style="html=1;points=[];perimeter=orthogonalPerimeter;outlineConnect=0;targetShapes=umlLifeline;portConstraint=eastwest;newEdgeStyle={&quot;edgeStyle&quot;:&quot;elbowEdgeStyle&quot;,&quot;elbow&quot;:&quot;vertical&quot;,&quot;curved&quot;:0,&quot;rounded&quot;:0};" parent="aM9ryv3xv72pqoxQDRHE-1" vertex="1">
          <mxGeometry x="45" y="70" width="10" height="1030" as="geometry" />
        </mxCell>
        <mxCell id="aM9ryv3xv72pqoxQDRHE-3" value="未登录&lt;br&gt;或携带&lt;br&gt;无效token" style="html=1;verticalAlign=bottom;startArrow=oval;endArrow=block;startSize=8;edgeStyle=elbowEdgeStyle;elbow=vertical;curved=0;rounded=0;" parent="aM9ryv3xv72pqoxQDRHE-1" target="aM9ryv3xv72pqoxQDRHE-2" edge="1">
          <mxGeometry x="-0.1602" y="-50" relative="1" as="geometry">
            <mxPoint x="-15" y="70" as="sourcePoint" />
            <mxPoint as="offset" />
          </mxGeometry>
        </mxCell>
        <mxCell id="aM9ryv3xv72pqoxQDRHE-5" value=":SGW" style="shape=umlLifeline;perimeter=lifelinePerimeter;whiteSpace=wrap;html=1;container=0;dropTarget=0;collapsible=0;recursiveResize=0;outlineConnect=0;portConstraint=eastwest;newEdgeStyle={&quot;edgeStyle&quot;:&quot;elbowEdgeStyle&quot;,&quot;elbow&quot;:&quot;vertical&quot;,&quot;curved&quot;:0,&quot;rounded&quot;:0};" parent="1" vertex="1">
          <mxGeometry x="260" y="40" width="100" height="1120" as="geometry" />
        </mxCell>
        <mxCell id="aM9ryv3xv72pqoxQDRHE-6" value="" style="html=1;points=[];perimeter=orthogonalPerimeter;outlineConnect=0;targetShapes=umlLifeline;portConstraint=eastwest;newEdgeStyle={&quot;edgeStyle&quot;:&quot;elbowEdgeStyle&quot;,&quot;elbow&quot;:&quot;vertical&quot;,&quot;curved&quot;:0,&quot;rounded&quot;:0};" parent="aM9ryv3xv72pqoxQDRHE-5" vertex="1">
          <mxGeometry x="45" y="80" width="10" height="1010" as="geometry" />
        </mxCell>
        <mxCell id="Jni-uKlpmEQ-bp5MoYXb-11" value="中间件鉴权" style="html=1;align=left;spacingLeft=2;endArrow=block;rounded=0;edgeStyle=orthogonalEdgeStyle;curved=0;rounded=0;" edge="1" parent="aM9ryv3xv72pqoxQDRHE-5">
          <mxGeometry relative="1" as="geometry">
            <mxPoint x="55" y="89.99799999999998" as="sourcePoint" />
            <Array as="points">
              <mxPoint x="80" y="89.99" />
              <mxPoint x="80" y="109.99" />
            </Array>
            <mxPoint x="55" y="109.99799999999998" as="targetPoint" />
          </mxGeometry>
        </mxCell>
        <mxCell id="Jni-uKlpmEQ-bp5MoYXb-25" value="中间件鉴权" style="html=1;align=left;spacingLeft=2;endArrow=block;rounded=0;edgeStyle=orthogonalEdgeStyle;curved=0;rounded=0;" edge="1" parent="aM9ryv3xv72pqoxQDRHE-5" source="aM9ryv3xv72pqoxQDRHE-6" target="aM9ryv3xv72pqoxQDRHE-6">
          <mxGeometry relative="1" as="geometry">
            <mxPoint x="60" y="529.998" as="sourcePoint" />
            <Array as="points">
              <mxPoint x="85" y="530" />
              <mxPoint x="85" y="550" />
            </Array>
            <mxPoint x="60" y="549.998" as="targetPoint" />
          </mxGeometry>
        </mxCell>
        <mxCell id="Jni-uKlpmEQ-bp5MoYXb-35" value="中间件鉴权" style="html=1;align=left;spacingLeft=2;endArrow=block;rounded=0;edgeStyle=orthogonalEdgeStyle;curved=0;rounded=0;" edge="1" parent="aM9ryv3xv72pqoxQDRHE-5" source="aM9ryv3xv72pqoxQDRHE-6" target="aM9ryv3xv72pqoxQDRHE-6">
          <mxGeometry relative="1" as="geometry">
            <mxPoint x="55" y="810" as="sourcePoint" />
            <Array as="points">
              <mxPoint x="90" y="810" />
              <mxPoint x="90" y="830" />
            </Array>
            <mxPoint x="55" y="830" as="targetPoint" />
          </mxGeometry>
        </mxCell>
        <mxCell id="aM9ryv3xv72pqoxQDRHE-7" value="请求某一登录后可见的页面" style="html=1;verticalAlign=bottom;endArrow=block;edgeStyle=elbowEdgeStyle;elbow=vertical;curved=0;rounded=0;" parent="1" source="aM9ryv3xv72pqoxQDRHE-2" target="aM9ryv3xv72pqoxQDRHE-6" edge="1">
          <mxGeometry relative="1" as="geometry">
            <mxPoint x="195" y="130" as="sourcePoint" />
            <Array as="points">
              <mxPoint x="180" y="120" />
            </Array>
          </mxGeometry>
        </mxCell>
        <mxCell id="aM9ryv3xv72pqoxQDRHE-8" value="返回刚才请求的路径，返回公钥&lt;br&gt;跳转登录页面" style="html=1;verticalAlign=bottom;endArrow=open;dashed=1;endSize=8;edgeStyle=elbowEdgeStyle;elbow=vertical;curved=0;rounded=0;" parent="1" source="aM9ryv3xv72pqoxQDRHE-6" target="aM9ryv3xv72pqoxQDRHE-2" edge="1">
          <mxGeometry relative="1" as="geometry">
            <mxPoint x="95" y="180" as="targetPoint" />
            <Array as="points">
              <mxPoint x="190" y="180" />
            </Array>
            <mxPoint x="265" y="180" as="sourcePoint" />
          </mxGeometry>
        </mxCell>
        <mxCell id="Jni-uKlpmEQ-bp5MoYXb-1" value=":User MS BE" style="shape=umlLifeline;perimeter=lifelinePerimeter;whiteSpace=wrap;html=1;container=0;dropTarget=0;collapsible=0;recursiveResize=0;outlineConnect=0;portConstraint=eastwest;newEdgeStyle={&quot;edgeStyle&quot;:&quot;elbowEdgeStyle&quot;,&quot;elbow&quot;:&quot;vertical&quot;,&quot;curved&quot;:0,&quot;rounded&quot;:0};" vertex="1" parent="1">
          <mxGeometry x="460" y="40" width="100" height="1120" as="geometry" />
        </mxCell>
        <mxCell id="Jni-uKlpmEQ-bp5MoYXb-2" value="" style="html=1;points=[];perimeter=orthogonalPerimeter;outlineConnect=0;targetShapes=umlLifeline;portConstraint=eastwest;newEdgeStyle={&quot;edgeStyle&quot;:&quot;elbowEdgeStyle&quot;,&quot;elbow&quot;:&quot;vertical&quot;,&quot;curved&quot;:0,&quot;rounded&quot;:0};" vertex="1" parent="Jni-uKlpmEQ-bp5MoYXb-1">
          <mxGeometry x="45" y="80" width="10" height="220" as="geometry" />
        </mxCell>
        <mxCell id="Jni-uKlpmEQ-bp5MoYXb-14" value="验证登录信息" style="html=1;align=left;spacingLeft=2;endArrow=block;rounded=0;edgeStyle=orthogonalEdgeStyle;curved=0;rounded=0;" edge="1" parent="Jni-uKlpmEQ-bp5MoYXb-1" source="Jni-uKlpmEQ-bp5MoYXb-2" target="Jni-uKlpmEQ-bp5MoYXb-2">
          <mxGeometry relative="1" as="geometry">
            <mxPoint x="60" y="219.998" as="sourcePoint" />
            <Array as="points">
              <mxPoint x="85" y="220" />
              <mxPoint x="85" y="240" />
            </Array>
            <mxPoint x="60" y="239.998" as="targetPoint" />
          </mxGeometry>
        </mxCell>
        <mxCell id="Jni-uKlpmEQ-bp5MoYXb-3" value=":Some MS ME" style="shape=umlLifeline;perimeter=lifelinePerimeter;whiteSpace=wrap;html=1;container=0;dropTarget=0;collapsible=0;recursiveResize=0;outlineConnect=0;portConstraint=eastwest;newEdgeStyle={&quot;edgeStyle&quot;:&quot;elbowEdgeStyle&quot;,&quot;elbow&quot;:&quot;vertical&quot;,&quot;curved&quot;:0,&quot;rounded&quot;:0};" vertex="1" parent="1">
          <mxGeometry x="640" y="40" width="100" height="1120" as="geometry" />
        </mxCell>
        <mxCell id="Jni-uKlpmEQ-bp5MoYXb-4" value="" style="html=1;points=[];perimeter=orthogonalPerimeter;outlineConnect=0;targetShapes=umlLifeline;portConstraint=eastwest;newEdgeStyle={&quot;edgeStyle&quot;:&quot;elbowEdgeStyle&quot;,&quot;elbow&quot;:&quot;vertical&quot;,&quot;curved&quot;:0,&quot;rounded&quot;:0};" vertex="1" parent="Jni-uKlpmEQ-bp5MoYXb-3">
          <mxGeometry x="45" y="80" width="10" height="980" as="geometry" />
        </mxCell>
        <mxCell id="Jni-uKlpmEQ-bp5MoYXb-5" value=":Some MS BE" style="shape=umlLifeline;perimeter=lifelinePerimeter;whiteSpace=wrap;html=1;container=0;dropTarget=0;collapsible=0;recursiveResize=0;outlineConnect=0;portConstraint=eastwest;newEdgeStyle={&quot;edgeStyle&quot;:&quot;elbowEdgeStyle&quot;,&quot;elbow&quot;:&quot;vertical&quot;,&quot;curved&quot;:0,&quot;rounded&quot;:0};" vertex="1" parent="1">
          <mxGeometry x="820" y="40" width="100" height="1120" as="geometry" />
        </mxCell>
        <mxCell id="Jni-uKlpmEQ-bp5MoYXb-6" value="" style="html=1;points=[];perimeter=orthogonalPerimeter;outlineConnect=0;targetShapes=umlLifeline;portConstraint=eastwest;newEdgeStyle={&quot;edgeStyle&quot;:&quot;elbowEdgeStyle&quot;,&quot;elbow&quot;:&quot;vertical&quot;,&quot;curved&quot;:0,&quot;rounded&quot;:0};" vertex="1" parent="Jni-uKlpmEQ-bp5MoYXb-5">
          <mxGeometry x="45" y="80" width="10" height="950" as="geometry" />
        </mxCell>
        <mxCell id="Jni-uKlpmEQ-bp5MoYXb-12" value="输入用户名密码，和刚才请求路径登录" style="html=1;verticalAlign=bottom;endArrow=block;edgeStyle=elbowEdgeStyle;elbow=vertical;curved=0;rounded=0;" edge="1" parent="1" source="aM9ryv3xv72pqoxQDRHE-2" target="aM9ryv3xv72pqoxQDRHE-6">
          <mxGeometry relative="1" as="geometry">
            <mxPoint x="100" y="220" as="sourcePoint" />
            <Array as="points">
              <mxPoint x="185" y="220" />
            </Array>
            <mxPoint x="310" y="220" as="targetPoint" />
          </mxGeometry>
        </mxCell>
        <mxCell id="Jni-uKlpmEQ-bp5MoYXb-13" value="转发给User微服务" style="html=1;verticalAlign=bottom;endArrow=block;edgeStyle=elbowEdgeStyle;elbow=vertical;curved=0;rounded=0;" edge="1" parent="1" source="aM9ryv3xv72pqoxQDRHE-6" target="Jni-uKlpmEQ-bp5MoYXb-2">
          <mxGeometry relative="1" as="geometry">
            <mxPoint x="320" y="240" as="sourcePoint" />
            <Array as="points">
              <mxPoint x="410" y="240" />
            </Array>
            <mxPoint x="530" y="240" as="targetPoint" />
          </mxGeometry>
        </mxCell>
        <mxCell id="Jni-uKlpmEQ-bp5MoYXb-15" value="返回token" style="html=1;verticalAlign=bottom;endArrow=open;dashed=1;endSize=8;edgeStyle=elbowEdgeStyle;elbow=vertical;curved=0;rounded=0;" edge="1" parent="1" source="Jni-uKlpmEQ-bp5MoYXb-2" target="aM9ryv3xv72pqoxQDRHE-6">
          <mxGeometry relative="1" as="geometry">
            <mxPoint x="320" y="310" as="targetPoint" />
            <Array as="points">
              <mxPoint x="415" y="310" />
            </Array>
            <mxPoint x="530" y="310" as="sourcePoint" />
          </mxGeometry>
        </mxCell>
        <mxCell id="Jni-uKlpmEQ-bp5MoYXb-16" value="请求之前请求的路径" style="html=1;verticalAlign=bottom;endArrow=block;edgeStyle=elbowEdgeStyle;elbow=vertical;curved=0;rounded=0;" edge="1" parent="1" source="aM9ryv3xv72pqoxQDRHE-6" target="Jni-uKlpmEQ-bp5MoYXb-4">
          <mxGeometry x="-0.3784" relative="1" as="geometry">
            <mxPoint x="320" y="360" as="sourcePoint" />
            <Array as="points">
              <mxPoint x="415" y="360" />
            </Array>
            <mxPoint x="620" y="360" as="targetPoint" />
            <mxPoint as="offset" />
          </mxGeometry>
        </mxCell>
        <mxCell id="Jni-uKlpmEQ-bp5MoYXb-17" value="请求数据" style="html=1;verticalAlign=bottom;endArrow=block;edgeStyle=elbowEdgeStyle;elbow=vertical;curved=0;rounded=0;" edge="1" parent="1" source="Jni-uKlpmEQ-bp5MoYXb-4" target="Jni-uKlpmEQ-bp5MoYXb-6">
          <mxGeometry relative="1" as="geometry">
            <mxPoint x="697.4999999999998" y="379.9999999999999" as="sourcePoint" />
            <Array as="points">
              <mxPoint x="802.5" y="380" />
            </Array>
            <mxPoint x="1072.5" y="380" as="targetPoint" />
            <mxPoint as="offset" />
          </mxGeometry>
        </mxCell>
        <mxCell id="Jni-uKlpmEQ-bp5MoYXb-18" value="返回数据" style="html=1;verticalAlign=bottom;endArrow=open;dashed=1;endSize=8;edgeStyle=elbowEdgeStyle;elbow=vertical;curved=0;rounded=0;" edge="1" parent="1" source="Jni-uKlpmEQ-bp5MoYXb-6" target="Jni-uKlpmEQ-bp5MoYXb-4">
          <mxGeometry relative="1" as="geometry">
            <mxPoint x="680" y="420" as="targetPoint" />
            <Array as="points">
              <mxPoint x="780" y="420" />
            </Array>
            <mxPoint x="870" y="420" as="sourcePoint" />
          </mxGeometry>
        </mxCell>
        <mxCell id="Jni-uKlpmEQ-bp5MoYXb-19" value="返回数据" style="html=1;verticalAlign=bottom;endArrow=open;dashed=1;endSize=8;edgeStyle=elbowEdgeStyle;elbow=vertical;curved=0;rounded=0;" edge="1" parent="1" source="Jni-uKlpmEQ-bp5MoYXb-4" target="aM9ryv3xv72pqoxQDRHE-6">
          <mxGeometry x="0.3243" relative="1" as="geometry">
            <mxPoint x="510" y="450" as="targetPoint" />
            <Array as="points">
              <mxPoint x="595" y="450" />
            </Array>
            <mxPoint x="680" y="450" as="sourcePoint" />
            <mxPoint as="offset" />
          </mxGeometry>
        </mxCell>
        <mxCell id="Jni-uKlpmEQ-bp5MoYXb-21" value="返回数据和token" style="html=1;verticalAlign=bottom;endArrow=open;dashed=1;endSize=8;edgeStyle=elbowEdgeStyle;elbow=vertical;curved=0;rounded=0;" edge="1" parent="1" source="aM9ryv3xv72pqoxQDRHE-6" target="aM9ryv3xv72pqoxQDRHE-2">
          <mxGeometry relative="1" as="geometry">
            <mxPoint x="110" y="480" as="targetPoint" />
            <Array as="points">
              <mxPoint x="210" y="480" />
            </Array>
            <mxPoint x="300" y="480" as="sourcePoint" />
          </mxGeometry>
        </mxCell>
        <mxCell id="Jni-uKlpmEQ-bp5MoYXb-22" value="已登录" style="html=1;verticalAlign=bottom;startArrow=oval;endArrow=block;startSize=8;edgeStyle=elbowEdgeStyle;elbow=vertical;curved=0;rounded=0;" edge="1" parent="1" target="aM9ryv3xv72pqoxQDRHE-2">
          <mxGeometry relative="1" as="geometry">
            <mxPoint x="20" y="520" as="sourcePoint" />
            <mxPoint x="85" y="520" as="targetPoint" />
          </mxGeometry>
        </mxCell>
        <mxCell id="Jni-uKlpmEQ-bp5MoYXb-24" value="携带token请求某路径" style="html=1;verticalAlign=bottom;endArrow=block;edgeStyle=elbowEdgeStyle;elbow=vertical;curved=0;rounded=0;" edge="1" parent="1" source="aM9ryv3xv72pqoxQDRHE-2" target="aM9ryv3xv72pqoxQDRHE-6">
          <mxGeometry relative="1" as="geometry">
            <mxPoint x="100" y="549" as="sourcePoint" />
            <Array as="points">
              <mxPoint x="190" y="549" />
            </Array>
            <mxPoint x="310" y="549" as="targetPoint" />
          </mxGeometry>
        </mxCell>
        <mxCell id="Jni-uKlpmEQ-bp5MoYXb-26" value="转发请求" style="html=1;verticalAlign=bottom;endArrow=block;edgeStyle=elbowEdgeStyle;elbow=vertical;curved=0;rounded=0;" edge="1" parent="1" source="aM9ryv3xv72pqoxQDRHE-6" target="Jni-uKlpmEQ-bp5MoYXb-4">
          <mxGeometry x="-0.0476" relative="1" as="geometry">
            <mxPoint x="320" y="620" as="sourcePoint" />
            <Array as="points">
              <mxPoint x="415" y="620" />
            </Array>
            <mxPoint x="530" y="620" as="targetPoint" />
            <mxPoint as="offset" />
          </mxGeometry>
        </mxCell>
        <mxCell id="Jni-uKlpmEQ-bp5MoYXb-29" value="请求数据" style="html=1;verticalAlign=bottom;endArrow=block;edgeStyle=elbowEdgeStyle;elbow=vertical;curved=0;rounded=0;" edge="1" parent="1">
          <mxGeometry relative="1" as="geometry">
            <mxPoint x="695" y="639.1700000000001" as="sourcePoint" />
            <Array as="points">
              <mxPoint x="802.5" y="639.1700000000001" />
            </Array>
            <mxPoint x="865" y="639.1700000000001" as="targetPoint" />
            <mxPoint as="offset" />
          </mxGeometry>
        </mxCell>
        <mxCell id="Jni-uKlpmEQ-bp5MoYXb-30" value="返回数据" style="html=1;verticalAlign=bottom;endArrow=open;dashed=1;endSize=8;edgeStyle=elbowEdgeStyle;elbow=vertical;curved=0;rounded=0;" edge="1" parent="1">
          <mxGeometry relative="1" as="geometry">
            <mxPoint x="695" y="679.1700000000001" as="targetPoint" />
            <Array as="points">
              <mxPoint x="780" y="679.1700000000001" />
            </Array>
            <mxPoint x="865" y="679.1700000000001" as="sourcePoint" />
          </mxGeometry>
        </mxCell>
        <mxCell id="Jni-uKlpmEQ-bp5MoYXb-31" value="返回数据" style="html=1;verticalAlign=bottom;endArrow=open;dashed=1;endSize=8;edgeStyle=elbowEdgeStyle;elbow=vertical;curved=0;rounded=0;" edge="1" parent="1" source="Jni-uKlpmEQ-bp5MoYXb-4" target="aM9ryv3xv72pqoxQDRHE-6">
          <mxGeometry x="0.3243" relative="1" as="geometry">
            <mxPoint x="310" y="710" as="targetPoint" />
            <Array as="points">
              <mxPoint x="590" y="710" />
            </Array>
            <mxPoint x="680" y="710" as="sourcePoint" />
            <mxPoint as="offset" />
          </mxGeometry>
        </mxCell>
        <mxCell id="Jni-uKlpmEQ-bp5MoYXb-32" value="返回数据" style="html=1;verticalAlign=bottom;endArrow=open;dashed=1;endSize=8;edgeStyle=elbowEdgeStyle;elbow=vertical;curved=0;rounded=0;" edge="1" parent="1" source="aM9ryv3xv72pqoxQDRHE-6" target="aM9ryv3xv72pqoxQDRHE-2">
          <mxGeometry relative="1" as="geometry">
            <mxPoint x="90" y="740" as="targetPoint" />
            <Array as="points">
              <mxPoint x="205" y="740" />
            </Array>
            <mxPoint x="300" y="740" as="sourcePoint" />
          </mxGeometry>
        </mxCell>
        <mxCell id="Jni-uKlpmEQ-bp5MoYXb-33" value="已登录" style="html=1;verticalAlign=bottom;startArrow=oval;endArrow=block;startSize=8;edgeStyle=elbowEdgeStyle;elbow=vertical;curved=0;rounded=0;" edge="1" parent="1">
          <mxGeometry relative="1" as="geometry">
            <mxPoint x="20" y="800" as="sourcePoint" />
            <mxPoint x="85" y="800" as="targetPoint" />
          </mxGeometry>
        </mxCell>
        <mxCell id="Jni-uKlpmEQ-bp5MoYXb-34" value="携带过期token请求某路径" style="html=1;verticalAlign=bottom;endArrow=block;edgeStyle=elbowEdgeStyle;elbow=vertical;curved=0;rounded=0;" edge="1" parent="1" source="aM9ryv3xv72pqoxQDRHE-2" target="aM9ryv3xv72pqoxQDRHE-6">
          <mxGeometry relative="1" as="geometry">
            <mxPoint x="90" y="830" as="sourcePoint" />
            <Array as="points">
              <mxPoint x="185" y="830" />
            </Array>
            <mxPoint x="300" y="830" as="targetPoint" />
          </mxGeometry>
        </mxCell>
        <mxCell id="Jni-uKlpmEQ-bp5MoYXb-40" value="转发请求" style="html=1;verticalAlign=bottom;endArrow=block;edgeStyle=elbowEdgeStyle;elbow=vertical;curved=0;rounded=0;" edge="1" parent="1">
          <mxGeometry x="-0.3243" relative="1" as="geometry">
            <mxPoint x="315" y="980" as="sourcePoint" />
            <Array as="points">
              <mxPoint x="415" y="980" />
            </Array>
            <mxPoint x="685" y="980" as="targetPoint" />
            <mxPoint as="offset" />
          </mxGeometry>
        </mxCell>
        <mxCell id="Jni-uKlpmEQ-bp5MoYXb-41" value="返回数据" style="html=1;verticalAlign=bottom;endArrow=open;dashed=1;endSize=8;edgeStyle=elbowEdgeStyle;elbow=vertical;curved=0;rounded=0;" edge="1" parent="1">
          <mxGeometry x="0.3243" relative="1" as="geometry">
            <mxPoint x="315" y="1070" as="targetPoint" />
            <Array as="points">
              <mxPoint x="590" y="1070" />
            </Array>
            <mxPoint x="685" y="1070" as="sourcePoint" />
            <mxPoint as="offset" />
          </mxGeometry>
        </mxCell>
        <mxCell id="Jni-uKlpmEQ-bp5MoYXb-42" value="请求数据" style="html=1;verticalAlign=bottom;endArrow=block;edgeStyle=elbowEdgeStyle;elbow=vertical;curved=0;rounded=0;" edge="1" parent="1">
          <mxGeometry relative="1" as="geometry">
            <mxPoint x="695" y="999.1699999999998" as="sourcePoint" />
            <Array as="points">
              <mxPoint x="802.5" y="999.1700000000001" />
            </Array>
            <mxPoint x="865" y="999.1699999999998" as="targetPoint" />
            <mxPoint as="offset" />
          </mxGeometry>
        </mxCell>
        <mxCell id="Jni-uKlpmEQ-bp5MoYXb-43" value="返回数据" style="html=1;verticalAlign=bottom;endArrow=open;dashed=1;endSize=8;edgeStyle=elbowEdgeStyle;elbow=vertical;curved=0;rounded=0;" edge="1" parent="1">
          <mxGeometry relative="1" as="geometry">
            <mxPoint x="695" y="1039.17" as="targetPoint" />
            <Array as="points">
              <mxPoint x="780" y="1039.17" />
            </Array>
            <mxPoint x="865" y="1039.1699999999998" as="sourcePoint" />
          </mxGeometry>
        </mxCell>
        <mxCell id="Jni-uKlpmEQ-bp5MoYXb-44" value="返回数据和token" style="html=1;verticalAlign=bottom;endArrow=open;dashed=1;endSize=8;edgeStyle=elbowEdgeStyle;elbow=vertical;curved=0;rounded=0;" edge="1" parent="1">
          <mxGeometry relative="1" as="geometry">
            <mxPoint x="95" y="1100" as="targetPoint" />
            <Array as="points">
              <mxPoint x="210" y="1100" />
            </Array>
            <mxPoint x="305" y="1100" as="sourcePoint" />
          </mxGeometry>
        </mxCell>
        <mxCell id="Jni-uKlpmEQ-bp5MoYXb-45" value="续期token" style="html=1;align=left;spacingLeft=2;endArrow=block;rounded=0;edgeStyle=orthogonalEdgeStyle;curved=0;rounded=0;" edge="1" parent="1">
          <mxGeometry relative="1" as="geometry">
            <mxPoint x="315" y="910" as="sourcePoint" />
            <Array as="points">
              <mxPoint x="350" y="910" />
              <mxPoint x="350" y="930" />
            </Array>
            <mxPoint x="315" y="930" as="targetPoint" />
          </mxGeometry>
        </mxCell>
      </root>
    </mxGraphModel>
  </diagram>
</mxfile>
